<?xml version="1.0" encoding="UTF-8" standalone="no"?><!-- Generator: Gravit.io --><svg xmlns="http://www.w3.org/2000/svg" xmlns:xlink="http://www.w3.org/1999/xlink" style="isolation:isolate" viewBox="0 0 500 500" width="500pt" height="500pt"><defs><clipPath id="_clipPath_Z7GX7MwElSWOHmlgjdRzUCfMUEIgQ3r9"><rect width="500" height="500"/></clipPath></defs><g clip-path="url(#_clipPath_Z7GX7MwElSWOHmlgjdRzUCfMUEIgQ3r9)"><clipPath id="_clipPath_NVed4VOwFqFiAh7SIz4RYRoih0cfTL6Y"><rect x="0" y="0" width="500" height="500" transform="matrix(1,0,0,1,0,0)" fill="rgb(255,255,255)"/></clipPath><g clip-path="url(#_clipPath_NVed4VOwFqFiAh7SIz4RYRoih0cfTL6Y)"><g><g><path d=" M 313.45 267.043 L 313.114 267.043 C 303.813 267.043 295.52 261.551 291.933 252.922 L 275.123 212.914 L 228.503 212.914 L 211.693 252.922 C 208.124 261.468 199.773 267.035 190.512 267.043 L 190.176 267.043 C 177.512 267.043 167.202 256.732 167.202 244.069 L 167.202 176.156 C 167.212 163.494 173.712 151.722 184.422 144.968 C 195.132 138.215 208.556 137.423 219.986 142.872 C 231.193 145.001 242.624 146.009 253.83 146.009 C 263.02 146.009 272.434 145.337 281.735 143.88 C 288.368 140.242 295.953 138.718 303.476 139.51 C 304.037 139.51 304.485 139.622 304.821 139.734 C 322.928 142.362 336.375 157.859 336.424 176.156 L 336.424 244.069 C 336.424 256.732 326.114 267.043 313.45 267.043 L 313.45 267.043 L 313.45 267.043 Z  M 226.71 207.647 L 276.804 207.647 C 277.925 207.647 278.821 208.319 279.27 209.328 L 296.752 250.905 C 299.554 257.517 305.942 261.775 313.002 261.775 L 313.338 261.775 C 323.088 261.775 331.045 253.819 331.045 244.069 L 331.045 176.156 C 331.045 160.466 319.39 147.018 303.813 144.889 C 303.7 144.889 303.588 144.889 303.364 144.777 L 303.028 144.777 C 301.795 144.665 300.675 144.553 299.554 144.553 C 294.063 144.553 288.683 146.009 283.864 148.699 C 283.528 148.811 283.304 148.923 282.968 149.035 C 273.218 150.492 263.356 151.277 253.718 151.277 C 241.951 151.277 230.072 150.156 218.529 147.915 C 218.305 147.915 218.081 147.803 217.857 147.69 C 213.486 145.561 208.891 144.441 203.96 144.441 C 186.59 144.441 172.469 158.561 172.469 175.932 L 172.469 243.845 C 172.469 253.595 180.426 261.551 190.176 261.551 L 190.512 261.551 C 197.684 261.551 204.072 257.293 206.762 250.681 L 224.244 209.104 C 224.581 208.319 225.589 207.647 226.71 207.647 L 226.71 207.647 L 226.71 207.647 Z  M 201.607 199.69 C 199.655 199.72 197.774 198.966 196.383 197.596 C 194.993 196.227 194.21 194.357 194.21 192.406 L 194.21 191.957 C 194.21 190.837 193.314 190.052 192.305 190.052 L 191.857 190.052 C 187.822 190.052 184.572 186.802 184.572 182.768 L 184.572 182.656 C 184.572 178.621 187.822 175.371 191.857 175.371 L 192.305 175.371 C 193.426 175.371 194.21 174.475 194.21 173.466 L 194.21 173.018 C 194.21 168.983 197.46 165.733 201.495 165.733 L 201.607 165.733 C 205.641 165.733 208.891 168.983 208.891 173.018 L 208.891 173.466 C 208.891 174.587 209.788 175.371 210.796 175.371 L 211.245 175.371 C 215.279 175.371 218.529 178.621 218.529 182.656 L 218.529 182.768 C 218.529 186.802 215.279 190.052 211.245 190.052 L 210.796 190.052 C 209.676 190.052 208.891 190.949 208.891 191.957 L 208.891 192.406 C 208.891 196.44 205.529 199.69 201.607 199.69 L 201.607 199.69 L 201.607 199.69 Z  M 191.745 180.638 C 190.624 180.638 189.84 181.535 189.84 182.544 L 189.84 182.656 C 189.84 183.776 190.736 184.561 191.745 184.561 L 192.193 184.561 C 196.227 184.561 199.477 187.811 199.477 191.845 L 199.477 192.293 C 199.477 193.414 200.374 194.199 201.383 194.199 L 201.495 194.199 C 202.615 194.199 203.4 193.302 203.4 192.293 L 203.4 191.845 C 203.4 187.811 206.65 184.561 210.684 184.561 L 211.133 184.561 C 212.253 184.561 213.038 183.664 213.038 182.656 L 213.038 182.544 C 213.038 181.423 212.141 180.638 211.133 180.638 L 210.684 180.638 C 206.65 180.638 203.4 177.388 203.4 173.354 L 203.4 172.906 C 203.4 171.785 202.503 171.001 201.495 171.001 L 201.383 171.001 C 200.262 171.001 199.477 171.897 199.477 172.906 L 199.477 173.354 C 199.477 177.388 196.227 180.638 192.193 180.638 L 191.745 180.638 L 191.745 180.638 L 191.745 180.638 Z  M 303.14 175.483 C 298.545 175.483 294.847 171.785 294.847 167.19 C 294.847 162.595 298.545 158.897 303.14 158.897 C 307.735 158.897 311.433 162.595 311.433 167.19 C 311.433 171.785 307.735 175.483 303.14 175.483 Z  M 303.14 164.277 C 301.459 164.277 300.114 165.621 300.114 167.302 C 300.114 168.983 301.459 170.328 303.14 170.328 C 304.821 170.328 306.166 168.983 306.166 167.302 C 306.166 165.621 304.821 164.277 303.14 164.277 Z  M 303.14 201.931 C 298.545 201.931 294.847 198.233 294.847 193.638 C 294.847 189.043 298.545 185.345 303.14 185.345 C 307.735 185.345 311.433 189.043 311.433 193.638 C 311.433 198.233 307.735 201.931 303.14 201.931 Z  M 303.14 190.724 C 301.459 190.724 300.114 192.069 300.114 193.75 C 300.114 195.431 301.459 196.776 303.14 196.776 C 304.821 196.776 306.166 195.431 306.166 193.75 C 306.166 191.957 304.821 190.724 303.14 190.724 Z  M 316.364 188.707 C 311.769 188.707 308.071 185.009 308.071 180.414 C 308.071 175.819 311.769 172.121 316.364 172.121 C 320.959 172.121 324.657 175.819 324.657 180.414 C 324.657 185.009 320.959 188.707 316.364 188.707 Z  M 316.364 177.5 C 314.683 177.5 313.338 178.845 313.338 180.526 C 313.338 182.207 314.683 183.552 316.364 183.552 C 318.045 183.552 319.39 182.207 319.39 180.526 C 319.39 178.845 318.045 177.5 316.364 177.5 Z  M 290.028 188.707 C 285.433 188.707 281.735 185.009 281.735 180.414 C 281.735 175.819 285.433 172.121 290.028 172.121 C 294.623 172.121 298.321 175.819 298.321 180.414 C 298.321 185.009 294.511 188.707 290.028 188.707 Z  M 290.028 177.5 C 288.347 177.5 287.002 178.845 287.002 180.526 C 287.002 182.207 288.347 183.552 290.028 183.552 C 291.709 183.552 293.054 182.207 293.054 180.526 C 292.942 178.845 291.597 177.5 290.028 177.5 Z  M 259.77 188.707 L 243.744 188.707 C 242.287 188.707 241.055 187.475 241.055 186.018 L 241.055 176.492 C 241.055 175.035 242.287 173.802 243.744 173.802 L 259.77 173.802 C 261.227 173.802 262.46 175.035 262.46 176.492 L 262.46 186.018 C 262.46 187.587 261.227 188.707 259.77 188.707 Z  M 246.434 183.44 L 257.08 183.44 L 257.08 179.182 L 246.434 179.182 L 246.434 183.44 L 246.434 183.44 Z " fill="rgb(179,55,113)"/><path d=" M 44.153 360.72 L 28.094 360.72 L 28.094 273.126 L 45.735 273.126 L 77.488 310.961 L 109.119 273.126 L 126.881 273.126 L 126.881 360.72 L 110.701 360.72 L 110.701 296.484 L 77.488 336.023 L 44.153 296.606 L 44.153 360.72 L 44.153 360.72 Z  M 195.497 360.72 L 157.418 360.72 L 157.418 360.72 Q 150.483 360.72 145.556 355.793 L 145.556 355.793 L 145.556 355.793 Q 140.629 350.866 140.629 343.931 L 140.629 343.931 L 140.629 290.158 L 156.566 290.158 L 156.566 340.525 L 156.566 340.525 Q 156.566 343.931 156.992 344.357 L 156.992 344.357 L 156.992 344.357 Q 157.418 344.783 160.824 344.783 L 160.824 344.783 L 192.09 344.783 L 192.09 344.783 Q 195.497 344.783 195.923 344.357 L 195.923 344.357 L 195.923 344.357 Q 196.348 343.931 196.348 340.525 L 196.348 340.525 L 196.348 290.158 L 212.286 290.158 L 212.286 343.931 L 212.286 343.931 Q 212.286 350.866 207.359 355.793 L 207.359 355.793 L 207.359 355.793 Q 202.431 360.72 195.497 360.72 L 195.497 360.72 L 195.497 360.72 Z  M 277.373 360.72 L 222.505 360.72 L 222.505 267.043 L 238.442 267.043 L 238.442 290.158 L 277.373 290.158 L 277.373 290.158 Q 284.308 290.158 289.235 295.085 L 289.235 295.085 L 289.235 295.085 Q 294.162 300.012 294.162 306.947 L 294.162 306.947 L 294.162 343.931 L 294.162 343.931 Q 294.162 350.866 289.235 355.793 L 289.235 355.793 L 289.235 355.793 Q 284.308 360.72 277.373 360.72 L 277.373 360.72 L 277.373 360.72 Z  M 242.7 344.783 L 242.7 344.783 L 273.967 344.783 L 273.967 344.783 Q 277.373 344.783 277.799 344.357 L 277.799 344.357 L 277.799 344.357 Q 278.225 343.931 278.225 340.525 L 278.225 340.525 L 278.225 310.353 L 278.225 310.353 Q 278.225 306.947 277.799 306.521 L 277.799 306.521 L 277.799 306.521 Q 277.373 306.095 273.967 306.095 L 273.967 306.095 L 242.7 306.095 L 242.7 306.095 Q 239.294 306.095 238.868 306.521 L 238.868 306.521 L 238.868 306.521 Q 238.442 306.947 238.442 310.353 L 238.442 310.353 L 238.442 340.525 L 238.442 340.525 Q 238.442 343.931 238.868 344.357 L 238.868 344.357 L 238.868 344.357 Q 239.294 344.783 242.7 344.783 Z  M 374.214 360.72 L 319.346 360.72 L 319.346 360.72 Q 312.411 360.72 307.484 355.793 L 307.484 355.793 L 307.484 355.793 Q 302.557 350.866 302.557 343.931 L 302.557 343.931 L 302.557 317.409 L 358.276 317.409 L 358.276 310.353 L 358.276 310.353 Q 358.276 306.947 357.851 306.521 L 357.851 306.521 L 357.851 306.521 Q 357.425 306.095 354.018 306.095 L 354.018 306.095 L 302.557 306.095 L 302.557 290.158 L 357.425 290.158 L 357.425 290.158 Q 364.359 290.158 369.286 295.085 L 369.286 295.085 L 369.286 295.085 Q 374.214 300.012 374.214 306.947 L 374.214 306.947 L 374.214 360.72 L 374.214 360.72 Z  M 322.752 344.783 L 322.752 344.783 L 358.276 344.783 L 358.276 331.765 L 318.494 331.765 L 318.494 340.525 L 318.494 340.525 Q 318.494 343.931 318.92 344.357 L 318.92 344.357 L 318.92 344.357 Q 319.346 344.783 322.752 344.783 Z  M 403.777 360.72 L 387.596 360.72 L 387.596 273.126 L 403.777 273.126 L 403.777 308.772 L 424.337 308.772 L 454.265 273.126 L 471.784 273.126 L 471.784 277.749 L 438.936 316.923 L 471.906 356.097 L 471.906 360.72 L 454.265 360.72 L 424.337 325.074 L 403.777 325.074 L 403.777 360.72 L 403.777 360.72 Z " fill="rgb(255,255,255)"/></g></g></g></g></svg>