<?xml version="1.0" encoding="UTF-8" standalone="no"?><!-- Generator: Gravit.io --><svg xmlns="http://www.w3.org/2000/svg" xmlns:xlink="http://www.w3.org/1999/xlink" style="isolation:isolate" viewBox="0 0 1000 250" width="1000pt" height="250pt"><defs><clipPath id="_clipPath_CMkNnFWfZc7cgptvdvqof7t0gSoJctLa"><rect width="1000" height="250"/></clipPath></defs><g clip-path="url(#_clipPath_CMkNnFWfZc7cgptvdvqof7t0gSoJctLa)"><rect width="1000" height="250" style="fill:rgb(25,42,86)" fill-opacity="0"/><g><path d=" M 235.266 207.839 L 234.83 207.839 C 222.768 207.839 212.014 200.718 207.363 189.528 L 185.565 137.647 L 125.109 137.647 L 103.311 189.528 C 98.683 200.609 87.854 207.829 75.844 207.839 L 75.408 207.839 C 58.987 207.839 45.617 194.469 45.617 178.047 L 45.617 89.98 C 45.629 73.561 54.058 58.295 67.947 49.537 C 81.835 40.78 99.244 39.753 114.065 46.819 C 128.597 49.58 143.42 50.888 157.953 50.888 C 169.87 50.888 182.077 50.016 194.139 48.127 C 202.74 43.409 212.576 41.432 222.332 42.459 C 223.058 42.459 223.64 42.604 224.076 42.75 C 247.556 46.157 264.994 66.254 265.057 89.98 L 265.057 178.047 C 265.057 194.469 251.687 207.839 235.266 207.839 L 235.266 207.839 Z  M 122.784 130.816 L 187.745 130.816 C 189.198 130.816 190.36 131.688 190.942 132.996 L 213.612 186.912 C 217.245 195.486 225.529 201.008 234.684 201.008 L 235.12 201.008 C 247.764 201.008 258.082 190.69 258.082 178.047 L 258.082 89.98 C 258.082 69.635 242.968 52.196 222.768 49.434 C 222.622 49.434 222.477 49.434 222.187 49.289 L 221.751 49.289 C 220.152 49.144 218.699 48.998 217.245 48.998 C 210.125 48.998 203.149 50.888 196.9 54.376 C 196.464 54.521 196.173 54.666 195.737 54.811 C 183.094 56.701 170.306 57.718 157.808 57.718 C 142.548 57.718 127.144 56.265 112.176 53.358 C 111.885 53.358 111.594 53.213 111.304 53.068 C 105.636 50.306 99.678 48.853 93.283 48.853 C 70.758 48.853 52.447 67.164 52.447 89.689 L 52.447 177.756 C 52.447 190.4 62.765 200.718 75.408 200.718 L 75.844 200.718 C 85.145 200.718 93.429 195.195 96.916 186.621 L 119.587 132.706 C 120.023 131.688 121.331 130.816 122.784 130.816 L 122.784 130.816 Z  M 90.231 120.498 C 87.701 120.537 85.261 119.559 83.458 117.784 C 81.655 116.008 80.64 113.583 80.64 111.052 L 80.64 110.471 C 80.64 109.018 79.477 108 78.17 108 L 77.588 108 C 72.357 108 68.142 103.786 68.142 98.554 L 68.142 98.409 C 68.142 93.177 72.357 88.963 77.588 88.963 L 78.17 88.963 C 79.623 88.963 80.64 87.8 80.64 86.492 L 80.64 85.911 C 80.64 80.679 84.854 76.465 90.086 76.465 L 90.231 76.465 C 95.463 76.465 99.678 80.679 99.678 85.911 L 99.678 86.492 C 99.678 87.946 100.84 88.963 102.148 88.963 L 102.729 88.963 C 107.961 88.963 112.176 93.177 112.176 98.409 L 112.176 98.554 C 112.176 103.786 107.961 108 102.729 108 L 102.148 108 C 100.695 108 99.678 109.163 99.678 110.471 L 99.678 111.052 C 99.678 116.284 95.318 120.498 90.231 120.498 L 90.231 120.498 Z  M 77.443 95.793 C 75.99 95.793 74.972 96.956 74.972 98.264 L 74.972 98.409 C 74.972 99.862 76.135 100.879 77.443 100.879 L 78.024 100.879 C 83.256 100.879 87.47 105.094 87.47 110.326 L 87.47 110.907 C 87.47 112.36 88.633 113.377 89.941 113.377 L 90.086 113.377 C 91.539 113.377 92.557 112.215 92.557 110.907 L 92.557 110.326 C 92.557 105.094 96.771 100.879 102.003 100.879 L 102.584 100.879 C 104.037 100.879 105.055 99.717 105.055 98.409 L 105.055 98.264 C 105.055 96.81 103.892 95.793 102.584 95.793 L 102.003 95.793 C 96.771 95.793 92.557 91.579 92.557 86.347 L 92.557 85.766 C 92.557 84.312 91.394 83.295 90.086 83.295 L 89.941 83.295 C 88.488 83.295 87.47 84.458 87.47 85.766 L 87.47 86.347 C 87.47 91.579 83.256 95.793 78.024 95.793 L 77.443 95.793 L 77.443 95.793 Z  M 221.896 89.108 C 215.938 89.108 211.142 84.312 211.142 78.354 C 211.142 72.396 215.938 67.6 221.896 67.6 C 227.854 67.6 232.65 72.396 232.65 78.354 C 232.65 84.312 227.854 89.108 221.896 89.108 Z  M 221.896 74.576 C 219.716 74.576 217.972 76.32 217.972 78.499 C 217.972 80.679 219.716 82.423 221.896 82.423 C 224.076 82.423 225.82 80.679 225.82 78.499 C 225.82 76.32 224.076 74.576 221.896 74.576 Z  M 221.896 123.405 C 215.938 123.405 211.142 118.609 211.142 112.651 C 211.142 106.692 215.938 101.897 221.896 101.897 C 227.854 101.897 232.65 106.692 232.65 112.651 C 232.65 118.609 227.854 123.405 221.896 123.405 Z  M 221.896 108.872 C 219.716 108.872 217.972 110.616 217.972 112.796 C 217.972 114.976 219.716 116.72 221.896 116.72 C 224.076 116.72 225.82 114.976 225.82 112.796 C 225.82 110.471 224.076 108.872 221.896 108.872 Z  M 239.044 106.257 C 233.086 106.257 228.29 101.461 228.29 95.502 C 228.29 89.544 233.086 84.748 239.044 84.748 C 245.003 84.748 249.798 89.544 249.798 95.502 C 249.798 101.461 245.003 106.257 239.044 106.257 Z  M 239.044 91.724 C 236.864 91.724 235.12 93.468 235.12 95.648 C 235.12 97.828 236.864 99.572 239.044 99.572 C 241.224 99.572 242.968 97.828 242.968 95.648 C 242.968 93.468 241.224 91.724 239.044 91.724 Z  M 204.893 106.257 C 198.935 106.257 194.139 101.461 194.139 95.502 C 194.139 89.544 198.935 84.748 204.893 84.748 C 210.851 84.748 215.647 89.544 215.647 95.502 C 215.647 101.461 210.706 106.257 204.893 106.257 Z  M 204.893 91.724 C 202.713 91.724 200.969 93.468 200.969 95.648 C 200.969 97.828 202.713 99.572 204.893 99.572 C 207.073 99.572 208.817 97.828 208.817 95.648 C 208.671 93.468 206.927 91.724 204.893 91.724 Z  M 165.655 106.257 L 144.874 106.257 C 142.984 106.257 141.386 104.658 141.386 102.769 L 141.386 90.416 C 141.386 88.527 142.984 86.928 144.874 86.928 L 165.655 86.928 C 167.544 86.928 169.143 88.527 169.143 90.416 L 169.143 102.769 C 169.143 104.803 167.544 106.257 165.655 106.257 Z  M 148.361 99.426 L 162.167 99.426 L 162.167 93.904 L 148.361 93.904 L 148.361 99.426 Z " fill="rgb(179,55,113)"/><path d=" M 316.012 194.901 L 292.046 194.901 L 292.046 64.177 L 318.372 64.177 L 365.76 120.643 L 412.966 64.177 L 439.474 64.177 L 439.474 194.901 L 415.326 194.901 L 415.326 99.037 L 365.76 158.044 L 316.012 99.218 L 316.012 194.901 Z  M 541.875 194.901 L 485.046 194.901 L 485.046 194.901 Q 474.697 194.901 467.344 187.548 L 467.344 187.548 L 467.344 187.548 Q 459.991 180.195 459.991 169.846 L 459.991 169.846 L 459.991 89.595 L 483.775 89.595 L 483.775 164.762 L 483.775 164.762 Q 483.775 169.846 484.411 170.481 L 484.411 170.481 L 484.411 170.481 Q 485.046 171.117 490.13 171.117 L 490.13 171.117 L 536.791 171.117 L 536.791 171.117 Q 541.875 171.117 542.51 170.481 L 542.51 170.481 L 542.51 170.481 Q 543.146 169.846 543.146 164.762 L 543.146 164.762 L 543.146 89.595 L 566.93 89.595 L 566.93 169.846 L 566.93 169.846 Q 566.93 180.195 559.577 187.548 L 559.577 187.548 L 559.577 187.548 Q 552.224 194.901 541.875 194.901 L 541.875 194.901 Z  M 664.066 194.901 L 582.182 194.901 L 582.182 55.099 L 605.966 55.099 L 605.966 89.595 L 664.066 89.595 L 664.066 89.595 Q 674.415 89.595 681.768 96.949 L 681.768 96.949 L 681.768 96.949 Q 689.121 104.302 689.121 114.651 L 689.121 114.651 L 689.121 169.846 L 689.121 169.846 Q 689.121 180.195 681.768 187.548 L 681.768 187.548 L 681.768 187.548 Q 674.415 194.901 664.066 194.901 L 664.066 194.901 Z  M 612.321 171.117 L 612.321 171.117 L 658.982 171.117 L 658.982 171.117 Q 664.066 171.117 664.701 170.481 L 664.701 170.481 L 664.701 170.481 Q 665.337 169.846 665.337 164.762 L 665.337 164.762 L 665.337 119.735 L 665.337 119.735 Q 665.337 114.651 664.701 114.016 L 664.701 114.016 L 664.701 114.016 Q 664.066 113.38 658.982 113.38 L 658.982 113.38 L 612.321 113.38 L 612.321 113.38 Q 607.237 113.38 606.602 114.016 L 606.602 114.016 L 606.602 114.016 Q 605.966 114.651 605.966 119.735 L 605.966 119.735 L 605.966 164.762 L 605.966 164.762 Q 605.966 169.846 606.602 170.481 L 606.602 170.481 L 606.602 170.481 Q 607.237 171.117 612.321 171.117 Z  M 808.589 194.901 L 726.705 194.901 L 726.705 194.901 Q 716.356 194.901 709.003 187.548 L 709.003 187.548 L 709.003 187.548 Q 701.649 180.195 701.649 169.846 L 701.649 169.846 L 701.649 130.265 L 784.805 130.265 L 784.805 119.735 L 784.805 119.735 Q 784.805 114.651 784.169 114.016 L 784.169 114.016 L 784.169 114.016 Q 783.534 113.38 778.45 113.38 L 778.45 113.38 L 701.649 113.38 L 701.649 89.595 L 783.534 89.595 L 783.534 89.595 Q 793.883 89.595 801.236 96.949 L 801.236 96.949 L 801.236 96.949 Q 808.589 104.302 808.589 114.651 L 808.589 114.651 L 808.589 194.901 Z  M 731.789 171.117 L 731.789 171.117 L 784.805 171.117 L 784.805 151.69 L 725.434 151.69 L 725.434 164.762 L 725.434 164.762 Q 725.434 169.846 726.069 170.481 L 726.069 170.481 L 726.069 170.481 Q 726.705 171.117 731.789 171.117 Z  M 852.709 194.901 L 828.561 194.901 L 828.561 64.177 L 852.709 64.177 L 852.709 117.374 L 883.393 117.374 L 928.057 64.177 L 954.202 64.177 L 954.202 71.076 L 905.18 129.539 L 954.383 188.002 L 954.383 194.901 L 928.057 194.901 L 883.393 141.704 L 852.709 141.704 L 852.709 194.901 Z " fill="rgb(255,255,255)"/></g></g></svg>